<?xml version="1.0" standalone="no"?>
<!DOCTYPE svg PUBLIC "-//W3C//DTD SVG 20010904//EN"
 "http://www.w3.org/TR/2001/REC-SVG-20010904/DTD/svg10.dtd">
<svg version="1.0" xmlns="http://www.w3.org/2000/svg"
 width="412.000000pt" height="412.000000pt" viewBox="0 0 412.000000 412.000000"
 preserveAspectRatio="xMidYMid meet">
<metadata>
Created by potrace 1.11, written by Peter Selinger 2001-2013
</metadata>
<g transform="translate(0.000000,412.000000) scale(0.100000,-0.100000)"
fill="#000000" stroke="none">
<path d="M0 2060 l0 -2060 2060 0 2060 0 0 2060 0 2060 -2060 0 -2060 0 0
-2060z m3442 1320 c73 -27 122 -70 155 -138 l28 -57 0 -1076 0 -1075 -30 -59
c-19 -37 -46 -72 -73 -92 -87 -66 -17 -63 -1384 -63 -681 0 -1238 3 -1238 8 0
4 33 40 73 80 l72 72 1170 2 c1152 3 1170 3 1197 23 61 45 58 -13 58 1104 0
1140 5 1068 -70 1110 l-38 21 -1298 0 -1298 0 -33 -22 c-67 -46 -63 33 -63
-1240 l0 -1153 -77 -90 -78 -90 -3 1245 c-2 877 1 1258 8 1290 25 100 86 168
183 201 49 17 131 18 1369 19 1289 0 1318 0 1370 -20z m-1972 -550 l0 -40 -55
0 -55 0 0 -175 0 -175 -45 0 -45 0 0 175 0 175 -55 0 -55 0 0 40 0 40 155 0
155 0 0 -40z m150 -45 l0 -85 60 0 60 0 0 85 0 85 45 0 45 0 0 -216 0 -215
-42 3 -43 3 -3 83 -3 82 -59 0 -60 0 0 -85 0 -85 -45 0 -45 0 0 215 0 215 45
0 45 0 0 -85z m530 45 c0 -35 -3 -40 -22 -41 -13 0 -48 -1 -78 -2 l-55 -2 -3
-42 -3 -43 71 0 71 0 -3 -42 -3 -43 -67 -3 -68 -3 0 -39 0 -40 80 0 80 0 0
-45 0 -46 -122 3 -123 3 -3 213 -2 212 125 0 125 0 0 -40z m-874 -587 c42 -49
80 -89 84 -91 4 -1 42 38 86 87 43 50 87 90 97 91 16 0 17 -17 17 -215 l0
-215 -45 0 -45 0 0 118 -1 117 -48 -52 c-26 -29 -52 -53 -56 -53 -5 0 -33 23
-62 52 l-53 52 0 -117 0 -117 -45 0 -45 0 0 215 c0 260 -1 259 116 128z m684
65 c67 -34 103 -93 108 -174 6 -82 -16 -140 -68 -188 -87 -78 -221 -75 -304 8
-103 102 -80 288 43 353 61 32 159 32 221 1z m281 -98 l57 -115 56 118 57 117
49 0 c28 0 50 -1 50 -3 0 -19 -201 -433 -211 -435 -9 -2 -48 71 -111 210 -54
117 -98 217 -98 221 0 4 21 7 48 5 l47 -3 56 -115z m409 -95 l0 -215 -45 0
-45 0 0 215 0 215 45 0 45 0 0 -215z m310 170 l0 -45 -75 0 -75 0 0 -40 0 -39
68 -3 67 -3 3 -42 3 -43 -70 0 -71 0 0 -45 0 -45 80 0 80 0 0 -40 0 -40 -125
0 -125 0 0 215 0 215 120 0 120 0 0 -45z m-1575 -524 c137 -62 167 -254 55
-355 -49 -44 -99 -58 -198 -54 l-77 3 -3 213 -2 212 92 0 c68 0 104 -5 133
-19z m432 -1 c53 -32 70 -145 28 -180 -13 -11 -12 -16 5 -37 13 -17 20 -41 20
-69 0 -36 -6 -51 -34 -82 l-34 -37 -111 -3 -111 -4 0 216 0 216 103 0 c83 0
108 -4 134 -20z"/>
<path d="M1765 2207 c-45 -45 -53 -91 -26 -151 32 -72 111 -97 179 -56 56 34
77 111 47 174 -20 43 -63 66 -120 66 -40 0 -52 -5 -80 -33z"/>
<path d="M1250 1565 l0 -125 44 0 c56 0 101 35 117 90 10 33 9 47 -5 85 -21
53 -55 75 -116 75 l-40 0 0 -125z"/>
<path d="M1660 1650 l0 -40 49 0 c56 0 76 17 67 55 -6 23 -11 25 -61 25 l-55
0 0 -40z"/>
<path d="M1660 1480 l0 -41 51 3 c96 6 96 70 0 76 l-51 3 0 -41z"/>
</g>
</svg>
